HIERARCHY
ROOT hip
{
	OFFSET 0.000000 0.000000 0.000000 
	CHANNELS 6 Xposition Yposition Zposition Xrotation Zrotation Yrotation
	JOINT abdomen
	{
		OFFSET 0.000000 3.402643 0.000000 
		CHANNELS 3 Xrotation Zrotation Yrotation
		JOINT chest
		{
			OFFSET 0.000000 8.438565 -0.680529 
			CHANNELS 3 Xrotation Zrotation Yrotation
			JOINT neck
			{
				OFFSET 0.000000 10.207942 -0.272212 
				CHANNELS 3 Xrotation Zrotation Yrotation
				JOINT head
				{
					OFFSET 0.000000 3.130431 0.000000 
					CHANNELS 3 Xrotation Zrotation Yrotation
					End Site
					{
						OFFSET 0.000000 3.130435 0.000000 
					}
				}
			}
			JOINT lCollar
			{
				OFFSET 3.470700 6.669187 -0.816635 
				CHANNELS 3 Yrotation Zrotation Xrotation
				JOINT lShldr
				{
					OFFSET 3.198488 0.000000 0.000000 
					CHANNELS 3 Zrotation Yrotation Xrotation
					JOINT lForeArm
					{
						OFFSET 10.139888 0.000000 0.000000 
						CHANNELS 3 Yrotation Zrotation Xrotation
						JOINT lHand
						{
							OFFSET 8.370511 0.000000 0.000000 
							CHANNELS 3 Zrotation Yrotation Xrotation
							End Site
							{
								OFFSET 4.083176 0.000000 0.000000 
							}
						}
					}
				}
			}
			JOINT rCollar
			{
				OFFSET -3.470700 6.669187 -0.816635 
				CHANNELS 3 Yrotation Zrotation Xrotation
				JOINT rShldr
				{
					OFFSET -3.198488 0.000000 0.000000 
					CHANNELS 3 Zrotation Yrotation Xrotation
					JOINT rForeArm
					{
						OFFSET -10.139888 0.000000 0.000000 
						CHANNELS 3 Yrotation Zrotation Xrotation
						JOINT rHand
						{
							OFFSET -8.370511 0.000000 0.000000 
							CHANNELS 3 Zrotation Yrotation Xrotation
							End Site
							{
								OFFSET -4.083176 0.000000 0.000000 
							}
						}
					}
				}
			}
		}
	}
	JOINT lThigh
	{
		OFFSET 5.308129 -1.633274 1.361059 
		CHANNELS 3 Xrotation Zrotation Yrotation
		JOINT lShin
		{
			OFFSET -2.041588 -20.007561 0.000000 
			CHANNELS 3 Xrotation Zrotation Yrotation
			JOINT lFoot
			{
				OFFSET 0.000000 -19.190928 -1.224953 
				CHANNELS 3 Xrotation Yrotation Zrotation
				End Site
				{
					OFFSET 0.000000 -2.449906 4.627600 
				}
			}
		}
	}
	JOINT rThigh
	{
		OFFSET -5.308129 -1.633274 1.361059 
		CHANNELS 3 Xrotation Zrotation Yrotation
		JOINT rShin
		{
			OFFSET 2.041588 -20.007561 0.000000 
			CHANNELS 3 Xrotation Zrotation Yrotation
			JOINT rFoot
			{
				OFFSET 0.000000 -19.190928 -1.224953 
				CHANNELS 3 Xrotation Yrotation Zrotation
				End Site
				{
					OFFSET 0.000000 -2.449906 4.627600 
				}
			}
		}
	}
}
MOTION
Frames: 20
Frame Time: 0.033333
-6.463562 48.500488 -1.135047 -0.039074 1.406250 -39.834946 0.000000 0.000000 0.000000 14.041777 2.899143 -2.790829 -5.540524 1.879529 -1.041991 9.395239 -2.421644 3.970069 -4.071005 -16.630507 17.218609 -8.019573 -67.321518 -8.127390 -40.587612 -13.015398 3.534816 -4.362482 -22.446018 -21.189093 -6.336424 18.811613 17.962008 -0.040320 58.289928 -11.661608 40.769894 12.705095 3.505450 7.407351 28.324219 -26.103268 17.888891 10.341179 8.182200 -3.526320 -3.142987 42.338936 -2.937823 0.442633 -16.870010 -14.935438 -12.981840 -6.945729 14.227363 5.663337 -13.482711 2.234098 0.054701 3.430423 
-6.785345 48.448517 -1.125244 0.361522 1.874963 -40.310123 0.000000 0.000000 0.000000 14.349951 3.264254 -2.553789 -4.950336 2.425028 -0.873364 9.346701 -2.968501 4.101682 -3.260978 -16.339937 17.889408 -7.314891 -66.577614 -8.810787 -40.858704 -12.590031 3.519765 -3.885514 -22.058569 -21.986874 -6.270554 19.633158 18.657442 -4.378433 57.340237 -15.270451 39.757092 12.669702 3.495846 9.276001 27.553671 -22.368856 17.562422 10.281281 7.941833 -3.536867 -2.762017 43.566128 -2.565953 0.376148 -16.940170 -16.244223 -12.562971 -6.320254 16.131521 5.399745 -13.792698 0.867394 0.032142 3.719353 
-7.005317 48.407993 -1.164935 0.957846 2.362951 -40.223812 0.000000 0.000000 0.000000 14.455368 3.745116 -2.052424 -4.396672 3.347525 -0.871644 8.838468 -4.013638 4.074708 -2.676989 -15.458562 18.106989 -9.538277 -67.041626 -8.231923 -40.609646 -12.352769 3.494084 -3.315957 -21.558197 -22.044735 -6.229633 20.994904 19.013033 -6.378416 55.019493 -19.187054 37.525265 11.953275 3.422068 8.386861 26.376816 -21.394350 16.749781 10.523889 7.866572 -3.540530 -2.529581 43.811962 -2.179689 0.318274 -16.795769 -17.505661 -12.223152 -5.798512 17.479572 5.360894 -14.517052 -0.055740 -0.011192 3.766759 
-7.188922 48.404091 -1.174952 1.662143 2.801557 -39.459377 0.000000 0.000000 0.000000 14.349463 4.380982 -1.878096 -4.197382 3.863062 -1.092023 8.251002 -4.208904 4.049241 -3.130088 -14.720326 17.915787 -14.213590 -68.293762 -5.024688 -40.287910 -12.579333 3.504567 -2.779733 -21.646221 -20.716213 -6.726331 21.937670 18.958397 -5.764511 54.219208 -19.747715 37.008690 11.432795 3.379549 6.231252 26.318911 -24.744295 15.802773 10.914559 7.785082 -3.528224 -2.501018 43.322304 -2.044811 0.299438 -16.481499 -18.239489 -12.253738 -5.962396 17.902426 5.580641 -14.953630 -0.512637 -0.025917 3.745838 
-7.383476 48.376789 -1.171139 2.131821 2.995976 -39.233871 0.000000 0.000000 0.000000 14.345807 4.683932 -2.084061 -4.212878 3.899060 -1.051630 8.172812 -3.935436 4.482617 -3.703838 -14.911007 18.011753 -16.229406 -68.853836 -2.353953 -40.989651 -12.938763 3.541399 -4.104500 -22.402906 -19.359020 -7.598009 22.307392 19.139675 -5.090915 55.747601 -16.007847 39.645084 12.011081 3.455864 6.479535 26.859674 -26.273708 15.652383 11.200260 7.869509 -3.549475 -2.451682 43.068184 -2.181270 0.324402 -16.835518 -18.852211 -12.046886 -5.899652 18.609150 5.593122 -15.434055 -1.069509 -0.033760 3.822942 
-7.517498 48.328838 -1.150400 2.434947 2.985588 -39.511436 0.000000 0.000000 0.000000 14.389462 4.891222 -2.467101 -3.583461 3.589831 -0.411491 7.204370 -3.534105 5.193522 -3.732738 -15.754900 18.291092 -15.415228 -68.411057 -2.380230 -41.630405 -12.833715 3.539265 -5.451334 -22.679354 -17.667650 -7.704662 21.489574 19.282101 -3.371666 57.975540 -11.703492 41.539394 13.130738 3.555324 8.521569 27.155912 -24.447678 15.895916 11.336925 7.886419 -3.545386 -2.205870 43.596889 -2.195877 0.339081 -17.554375 -19.324423 -11.590692 -5.657141 19.450205 5.369475 -15.559050 -1.687957 -0.056997 4.041967 
-7.622452 48.250439 -1.157573 2.493110 2.751304 -40.182659 0.000000 0.000000 0.000000 14.634645 4.895287 -2.570791 -3.174268 3.675546 0.165723 7.067293 -3.592461 5.730858 -3.082432 -16.075315 18.793053 -11.335878 -67.050171 -6.035576 -41.673775 -12.191180 3.502159 -3.325369 -22.673906 -19.468153 -7.371440 20.876041 19.645405 -2.213881 58.448948 -11.494060 41.043877 13.347829 3.561765 9.918035 27.300095 -21.433384 16.443634 11.532936 8.226337 -3.539543 -2.130031 44.140259 -2.202358 0.340945 -17.858276 -19.732346 -10.925276 -5.129910 20.561411 5.084893 -15.468830 -2.391905 -0.088637 4.217293 
-7.693804 48.213562 -1.165540 2.238893 2.742049 -40.449135 0.000000 0.000000 0.000000 14.845816 4.692235 -2.194698 -2.368366 4.306180 0.450168 5.813006 -4.145486 5.816589 -2.553452 -15.215928 19.051853 -10.233328 -65.732628 -8.845811 -41.208046 -11.438206 3.450780 -2.577080 -21.683956 -22.880064 -7.605256 22.370371 20.116703 -4.672908 56.179714 -15.317306 38.925091 12.778961 3.496340 8.485260 26.586935 -22.417288 16.926432 11.442221 8.323951 -3.546417 -2.019937 43.951900 -2.297631 0.362595 -18.033272 -19.944223 -10.757378 -4.839741 21.290937 4.956397 -15.710255 -2.796555 -0.122266 4.208994 
-7.727783 48.173927 -1.147997 2.004484 2.879100 -40.035633 0.000000 0.000000 0.000000 14.895208 4.710050 -1.707183 -2.155021 4.905177 0.536821 5.201676 -5.039978 5.728593 -2.462892 -14.202842 18.948908 -12.688173 -65.695465 -7.667105 -40.582382 -11.379020 3.429717 -1.545477 -20.921932 -23.459972 -7.779237 23.426960 20.237125 -5.745077 53.734512 -17.884430 37.457726 11.972195 3.429568 6.828803 25.302521 -24.121622 16.908665 11.345980 8.211894 -3.549090 -1.983238 43.452644 -2.264322 0.356893 -18.149162 -20.182798 -11.082394 -4.807477 22.183586 4.948904 -15.781854 -3.325001 -0.121590 4.363963 
-7.773967 48.179836 -1.167414 2.063187 2.898514 -39.475346 0.000000 0.000000 0.000000 14.810599 4.872465 -1.613507 -2.440548 5.278316 0.447156 5.101286 -5.458599 5.860327 -2.864024 -14.096176 18.745731 -18.582813 -66.590698 -3.426032 -40.438145 -11.758554 3.458317 -2.123991 -21.257689 -22.422569 -8.188566 24.041967 20.170637 -5.817728 54.097095 -16.745239 37.535488 12.604562 3.465528 5.998902 25.847347 -25.142046 16.646343 11.541450 8.245740 -3.549112 -2.032355 42.888161 -2.182950 0.365072 -18.277643 -20.153582 -11.062845 -4.761770 22.201584 4.791868 -16.120701 -3.350883 -0.143824 4.566330 
-7.791584 48.175816 -1.188682 1.857659 2.781743 -39.186790 0.000000 0.000000 0.000000 14.981334 5.047959 -1.873035 -2.382774 4.588529 0.799216 4.116035 -4.653722 6.038244 -2.613397 -15.425449 19.142931 -20.554514 -67.296501 -0.370951 -41.226871 -12.135095 3.490143 -2.737332 -22.152594 -19.712139 -8.034028 22.802948 20.379450 -4.225936 55.842831 -13.588447 39.232700 13.217632 3.522020 7.539594 26.697361 -24.391840 16.821384 11.570949 8.318449 -3.530025 -2.099927 42.635536 -2.185238 0.333087 -18.227428 -19.866571 -11.177546 -4.961344 22.370031 4.676172 -15.952834 -3.503449 -0.145065 4.726453 
-7.805176 48.121826 -1.239522 1.828297 2.762267 -39.169304 0.000000 0.000000 0.000000 15.128346 5.044494 -1.889448 -2.407062 4.223477 1.335326 2.839431 -3.711660 6.126199 -1.967004 -16.085234 19.421471 -20.669250 -67.327850 -0.166148 -41.886456 -11.771915 3.481530 -3.528238 -22.479481 -20.601706 -7.459562 21.997639 20.473488 -2.122429 55.965446 -12.648282 39.727638 12.885624 3.501380 7.241115 27.112957 -24.543085 16.811102 11.687039 8.423652 -3.535924 -2.147119 42.754948 -2.009162 0.320775 -18.117491 -20.119953 -11.177185 -5.012300 23.016214 4.618630 -16.007574 -3.828097 -0.177256 4.812922 
-7.809580 48.078285 -1.281113 1.584255 3.035951 -39.046532 0.000000 0.000000 0.000000 15.138452 4.629263 -1.639133 -2.020132 5.238764 1.420395 1.800626 -4.955276 6.664076 -1.799620 -15.385020 19.435827 -20.486383 -66.602905 -1.426000 -41.826199 -11.285933 3.445287 -2.834661 -21.884027 -22.239149 -8.317987 24.132935 20.827038 -3.869202 54.853909 -14.870363 38.118031 12.803364 3.487799 6.166013 25.914558 -23.666946 16.846481 11.519841 8.338702 -3.535670 -2.127207 42.402859 -1.986152 0.321471 -18.398849 -20.521685 -11.470977 -4.859267 23.912275 4.568442 -15.630826 -4.361719 -0.189130 4.889856 
-7.826696 48.065071 -1.308094 1.379029 3.143623 -38.517689 0.000000 0.000000 0.000000 15.195374 4.543164 -1.501133 -1.341262 5.922725 1.420229 0.249213 -5.845944 7.155289 -2.335850 -14.102120 19.437157 -23.588768 -66.677834 -0.367216 -41.318779 -11.155716 3.437045 -2.028686 -21.183886 -23.102257 -9.115821 25.000000 21.106689 -4.449472 54.318535 -14.745107 38.240353 12.750454 3.476769 6.420510 25.389523 -25.033255 16.816914 11.510232 8.345564 -3.544242 -2.283729 41.715279 -2.065653 0.333792 -18.272734 -20.527002 -11.894419 -5.191504 24.255930 4.637889 -15.793245 -4.530185 -0.207256 4.905848 
-7.853248 48.057896 -1.331702 1.251838 3.104729 -38.203243 0.000000 0.000000 0.000000 15.462962 4.678627 -1.412022 -1.577427 5.955303 1.639683 -0.156000 -6.013546 7.398427 -2.293912 -13.831549 19.720284 -24.018402 -67.145744 1.094214 -42.426418 -11.093312 3.446149 -2.635062 -21.559982 -23.019985 -9.252676 25.000000 21.414398 -4.469389 54.160076 -13.007998 40.536644 12.759752 3.509032 7.086838 25.530603 -24.636623 16.829828 11.559618 8.336420 -3.529182 -2.305238 41.285679 -2.060329 0.317422 -18.268421 -20.424107 -11.988532 -5.319757 24.418510 4.601290 -16.176384 -4.612221 -0.212782 4.989532 
-7.861931 48.041161 -1.389326 1.232370 3.182859 -38.056126 0.000000 0.000000 0.000000 15.585785 4.901734 -1.251823 -1.322405 5.551627 2.214639 -0.989690 -5.951370 7.429397 -1.479528 -14.596000 19.976229 -22.172335 -67.240608 1.170943 -43.153820 -11.258671 3.461514 -2.457360 -21.677330 -22.740643 -8.603412 24.586664 21.521656 -3.617091 53.469452 -12.541451 40.604889 12.590243 3.504926 8.189559 25.966291 -22.932562 16.733908 11.590519 8.339521 -3.530112 -2.255722 41.293793 -1.880349 0.297332 -18.276392 -20.560093 -12.017319 -5.272154 24.788404 4.610320 -15.968076 -4.906622 -0.196087 4.979829 
-7.857903 48.049721 -1.417892 1.036846 3.270950 -37.655216 0.000000 0.000000 0.000000 15.678350 5.078279 -1.173981 -0.695179 5.409220 2.564516 -2.011191 -5.961432 7.539902 -1.203223 -15.158869 20.142710 -21.869064 -66.394203 0.223779 -42.842957 -11.163334 3.452022 -2.216810 -21.370478 -23.139364 -8.644088 24.733866 21.722137 -3.385961 52.479424 -13.607991 39.451397 12.114519 3.460076 6.539201 25.424870 -24.195877 16.703600 11.530874 8.295551 -3.540973 -2.285095 40.895248 -1.826535 0.293769 -18.054628 -20.385441 -12.398731 -5.625412 24.960041 4.745652 -15.887414 -5.076559 -0.229421 4.925601 
-7.877913 48.034996 -1.439864 0.988085 3.417462 -37.567566 0.000000 0.000000 0.000000 15.864332 5.064250 -1.140693 -1.530045 5.366007 3.005794 -1.100693 -5.554646 7.724991 -0.843369 -15.257475 20.374640 -23.082699 -66.263786 0.759640 -42.662102 -11.113002 3.444737 -2.129048 -20.866648 -23.995234 -9.113467 25.000000 22.069765 -3.608627 52.529835 -13.711696 40.382851 11.843113 3.453790 6.326403 25.120665 -25.426413 16.643599 11.530174 8.363368 -3.534249 -2.411093 40.586788 -1.882797 0.288111 -18.112494 -20.575169 -12.665464 -5.870498 25.180168 4.909096 -15.892097 -5.160662 -0.213397 4.795609 
-7.917050 48.012348 -1.454764 0.939277 3.524918 -37.744488 0.000000 0.000000 0.000000 16.215673 4.595622 -1.106162 -2.715794 6.862125 3.009821 -0.195349 -6.592121 8.918411 -1.283103 -11.619452 20.771942 -29.531227 -66.809258 5.146131 -43.163555 -10.713758 3.427334 -3.409530 -20.702448 -21.659842 -10.294875 25.000000 22.862480 -5.962373 53.412220 -13.828367 40.995705 12.562790 3.509143 8.207508 25.497734 -23.379482 16.629389 11.464458 8.267713 -3.534574 -2.323166 40.544762 -1.868581 0.296767 -18.233963 -20.808716 -12.703828 -5.836029 25.566051 4.951237 -15.733705 -5.418484 -0.228154 4.707829 
-7.924223 47.992077 -1.474447 0.821911 3.573852 -37.497078 0.000000 0.000000 0.000000 16.080971 4.702013 -0.989801 -2.134083 6.714709 3.476343 -0.914351 -6.655993 8.993464 -1.211428 -12.247823 20.535305 -31.104710 -66.035393 7.864460 -43.422161 -11.022827 3.452694 -2.902460 -20.655148 -21.176197 -9.874918 25.000000 22.571323 -3.906172 52.336506 -12.353166 40.902287 12.552542 3.502691 8.317100 24.838036 -21.747229 16.534834 11.442203 8.200902 -3.537380 -2.321928 40.467148 -1.727678 0.282295 -18.252596 -20.862070 -12.836588 -5.865339 25.866516 4.920450 -15.840515 -5.552614 -0.234940 4.781208 
